<?xml version="1.0" encoding="utf-8"?>
<!-- Generator: Adobe Illustrator 17.1.0, SVG Export Plug-In . SVG Version: 6.00 Build 0)  -->
<!DOCTYPE svg PUBLIC "-//W3C//DTD SVG 1.1//EN" "http://www.w3.org/Graphics/SVG/1.1/DTD/svg11.dtd">
<svg version="1.1" id="Layer_1" xmlns="http://www.w3.org/2000/svg" xmlns:xlink="http://www.w3.org/1999/xlink" x="0px" y="0px"
	 viewBox="0 0 500 500" enable-background="new 0 0 500 500" xml:space="preserve">
<g>
	<circle fill="#FF8E00" cx="250" cy="250" r="250"/>
	<g>
		<g>
			<g opacity="0.75">
				<path fill="#FFFFFF" d="M350.4,268.3c-0.2,2.8-2.6,4.8-5.5,4.6l-119.8-10.4c-2.8-0.2-4.8-2.6-4.6-5.5l15.3-175.9
					c0.2-2.8,2.6-4.8,5.5-4.6L361.2,87c2.8,0.2,4.8,2.6,4.6,5.5L350.4,268.3z"/>
			</g>
		</g>
		<g>
			<g opacity="0.75">
				<path fill="#FFFFFF" d="M295.2,246.6c0.5,2.6-1.4,5.3-4.1,5.8l-118.4,20.8c-2.6,0.5-5.3-1.4-5.8-4.1l-23.8-135.7
					c-0.5-2.6,1.4-5.3,4.1-5.8l118.4-20.8c2.6-0.5,5.3,1.4,5.8,4.1L295.2,246.6z"/>
			</g>
		</g>
		<g opacity="0.5">
			<g>
				<g>
					
						<rect x="228.3" y="229.4" transform="matrix(-0.9964 -8.511262e-002 8.511262e-002 -0.9964 553.4993 484.1023)" fill="#FF8E00" width="117.5" height="1.8"/>
				</g>
			</g>
			<g>
				<g>
					
						<rect x="229.7" y="216.1" transform="matrix(-0.9964 -8.511262e-002 8.511262e-002 -0.9964 557.4419 457.8205)" fill="#FF8E00" width="117.5" height="1.8"/>
				</g>
			</g>
			<g>
				<g>
					
						<rect x="231" y="202.9" transform="matrix(-0.9964 -8.511262e-002 8.511262e-002 -0.9964 561.0352 431.4934)" fill="#FF8E00" width="117.5" height="1.8"/>
				</g>
			</g>
			<g>
				<g>
					
						<rect x="232.4" y="189.7" transform="matrix(-0.9964 -8.511262e-002 8.511262e-002 -0.9964 564.9778 405.2112)" fill="#FF8E00" width="117.5" height="1.8"/>
				</g>
			</g>
			<g>
				<g>
					
						<rect x="233.6" y="176.4" transform="matrix(-0.9964 -8.511262e-002 8.511262e-002 -0.9964 568.571 378.8844)" fill="#FF8E00" width="117.5" height="1.8"/>
				</g>
			</g>
			<g>
				<g>
					
						<rect x="235" y="163.2" transform="matrix(-0.9964 -8.511262e-002 8.511262e-002 -0.9964 572.514 352.6023)" fill="#FF8E00" width="117.5" height="1.8"/>
				</g>
			</g>
			<g>
				<g>
					
						<rect x="236.3" y="150" transform="matrix(-0.9964 -8.511262e-002 8.511262e-002 -0.9964 576.1069 326.2755)" fill="#FF8E00" width="117.5" height="1.8"/>
				</g>
			</g>
			<g>
				<g>
					
						<rect x="237.7" y="136.7" transform="matrix(-0.9964 -8.511262e-002 8.511262e-002 -0.9964 580.0499 299.9933)" fill="#FF8E00" width="117.5" height="1.8"/>
				</g>
			</g>
			<g>
				<g>
					
						<rect x="238.9" y="123.5" transform="matrix(-0.9964 -8.511262e-002 8.511262e-002 -0.9964 583.6428 273.6665)" fill="#FF8E00" width="117.5" height="1.8"/>
				</g>
			</g>
			<g>
				<g>
					
						<rect x="240.3" y="110.3" transform="matrix(-0.9964 -8.511262e-002 8.511262e-002 -0.9964 587.5858 247.3844)" fill="#FF8E00" width="117.5" height="1.8"/>
				</g>
			</g>
			<g>
				<g>
					
						<rect x="241.5" y="97" transform="matrix(-0.9964 -8.511262e-002 8.511262e-002 -0.9964 591.179 221.0576)" fill="#FF8E00" width="117.5" height="1.8"/>
				</g>
			</g>
		</g>
		<g>
			<g>
				<path fill="#FFFFFF" d="M291.8,219.3c-7.2-22.2-23.3-36-41.8-36s-34.6,13.8-41.8,36l-1.9,6l-16.1-8.3l1.4-4.2
					c9.9-30,32.1-48.7,58.4-48.7c26.1,0,48.5,18.7,58.4,48.7l1.4,4.2l-16.1,8.3L291.8,219.3z"/>
			</g>
			<g>
				<g>
					<path fill="#FF8E00" d="M385.1,420.4c-0.2,2.8-2.6,5.3-5.5,5.8c-87,12.5-172.4,12.5-259.4,0c-2.8-0.4-5.3-3-5.5-5.8
						c-5.5-68.1-5.5-136.6,0-204.7c0.2-2.8,2.6-5.3,5.5-5.8c87-12.5,172.4-12.5,259.4,0c2.8,0.4,5.3,3,5.5,5.8
						C390.6,283.9,390.6,352.3,385.1,420.4z"/>
					<g>
						<path fill="#FFFFFF" d="M250,438.1c-42.9,0-86.6-3.2-130-9.4c-3.9-0.5-7.2-4.1-7.6-8.1c-5.3-68.1-5.3-137.1,0-205
							c0.4-3.9,3.7-7.4,7.6-8.1c43.4-6.2,87.2-9.4,130-9.4s86.6,3.2,130,9.4c3.9,0.5,7.2,4.1,7.6,8.1c5.3,68.1,5.3,137.1,0,205
							c-0.4,3.9-3.7,7.4-7.6,8.1C336.6,434.9,292.9,438.1,250,438.1z M250,203.2c-42.7,0-86.1,3.2-129.3,9.4
							c-1.6,0.2-3.2,1.9-3.4,3.5c-5.3,67.7-5.3,136.6,0,204.3c0.2,1.6,1.8,3.2,3.4,3.5c43.2,6.2,86.6,9.4,129.3,9.4
							s86.1-3.2,129.3-9.4c1.6-0.2,3.2-1.9,3.4-3.5c5.3-67.7,5.3-136.6,0-204.3c-0.2-1.6-1.8-3.2-3.4-3.5
							C336.1,206.4,292.7,203.2,250,203.2z"/>
					</g>
				</g>
				<g>
					<g>
						<path fill="#FFFFFF" d="M252.1,313.5c-0.7,0-1.4,0-2.1,0c-48.5-0.4-95.8-9.9-140.4-28.8l2.1-4.9
							c89.1,37.6,187.7,38.1,277.3,1.6l1.9,4.9C346.7,304.3,299.9,313.5,252.1,313.5z"/>
					</g>
				</g>
				<g>
					<path fill="#FFFFFF" d="M266.4,322.7c0,2.6-2.1,6-4.9,6.7c-7.6,2.1-15.5,2.1-23.1,0c-2.6-0.9-4.9-4.1-4.9-6.7
						c0-8.1,0-16.2,0-24.3c0-2.6,2.1-6,4.9-6.7c7.6-2.1,15.5-2.1,23.1,0c2.6,0.9,4.9,4.1,4.9,6.7
						C266.4,306.3,266.4,314.6,266.4,322.7z"/>
				</g>
			</g>
			<g>
				<path fill="#FF8E00" d="M296.9,217.7c-7.9-24.3-25.9-39.5-46.9-39.5c-20.8,0-38.8,15.2-46.9,39.5l-6.5-3.4
					c9.2-27.9,29.5-45,53.3-45s44.3,17.3,53.3,45L296.9,217.7z"/>
			</g>
		</g>
	</g>
</g>
</svg>
